<?xml version="1.0" encoding="UTF-8"?>
<!DOCTYPE svg PUBLIC "-//W3C//DTD SVG 1.1//EN" "http://www.w3.org/Graphics/SVG/1.1/DTD/svg11.dtd">
<!-- Creator: CorelDRAW -->
<svg xmlns="http://www.w3.org/2000/svg" xml:space="preserve" width="210mm" height="297mm" version="1.1" style="shape-rendering:geometricPrecision; text-rendering:geometricPrecision; image-rendering:optimizeQuality; fill-rule:evenodd; clip-rule:evenodd"
viewBox="0 0 21000 29700"
 xmlns:xlink="http://www.w3.org/1999/xlink"
 xmlns:xodm="http://www.corel.com/coreldraw/odm/2003">
 <defs>
  <style type="text/css">
   <![CDATA[
    .str0 {stroke:#2B2A29;stroke-width:200;stroke-miterlimit:22.9256}
    .fil0 {fill:none}
   ]]>
  </style>
 </defs>
 <g id="Слой_x0020_1">
  <metadata id="CorelCorpID_0Corel-Layer"/>
  <ellipse class="fil0 str0" cx="10330.95" cy="3509.37" rx="1638" ry="526.91"/>
  <path class="fil0 str0" d="M8692.95 3509.37c283.1,1114.81 143.73,1295.26 279.63,1433.54 60.57,61.64 204.36,72.24 407.64,238.82 44.96,36.85 126.17,154.92 205.89,357.08 168.42,427.14 28.56,683.91 -88.17,1055.48"/>
  <path class="fil0 str0" d="M9508.25 6561.91c-85.79,355.85 655.41,344.8 1136.67,329.22 401.9,-13 709.24,-166.84 602.17,-360.24"/>
  <path class="fil0 str0" d="M11978.06 3509.73c-250.67,1114.82 -127.26,1295.26 -247.59,1433.54 -53.63,61.64 -180.96,72.24 -360.95,238.82 -39.8,36.85 -111.71,154.92 -182.3,357.08 -149.13,427.14 -25.29,683.91 78.07,1055.48"/>
  <line class="fil0 str0" x1="9945.21" y1="6832.2" x2="10061.29" y2= "7565.35" />
  <line class="fil0 str0" x1="10846.32" y1="6844.39" x2="10786.1" y2= "7560.62" />
  <path class="fil0 str0" d="M9616.05 6343.17c-1775.69,113.87 -3046.89,591.24 -3046.89,1144.23 0,645.77 1717.87,1169.28 3836.97,1169.28 2119.11,0 3836.97,-523.51 3836.97,-1169.28 0,-560.05 -1303.11,-1041.46 -3107.35,-1147.95"/>
  <line class="fil0 str0" x1="10192" y1="8652.04" x2="10165.86" y2= "11906.09" />
  <line class="fil0 str0" x1="10697.23" y1="8675.83" x2="10672.55" y2= "11905.8" />
  <path class="fil0 str0" d="M9167.28 13339.05c84.89,-356.29 169.79,-712.57 336.22,-951.4 166.43,-238.83 414.39,-360.19 622.83,-420.92 208.43,-60.74 377.32,-60.83 589.55,-0.15 212.24,60.68 467.81,182.15 639.45,432.92 171.64,250.76 259.34,630.83 347.05,1010.9"/>
  <path class="fil0 str0" d="M9153.85 13278.04l279.48 455.8c245.77,400.8 387.41,1295.39 349.15,1758.22 -14.8,179.05 -38.98,1489.52 -269.65,1853.66 -74.17,117.09 -277.85,377.15 -508.83,672.76 -311.5,398.65 -672.66,862 -832.83,1126.6"/>
  <path class="fil0 str0" d="M11726.01 13288.04l-279.48 455.8c-245.77,400.8 -387.41,1295.39 -349.15,1758.22 14.8,179.05 38.98,1489.52 269.65,1853.66 174.19,275 1062.72,1338.55 1341.66,1799.36"/>
  <path class="fil0 str0" d="M8289.33 18964.65l-118.16 180.43c-180.45,213.89 -383.9,445.59 -616.3,721.78 -44.36,52.72 -214.71,256.41 -331.61,400.24 -88.54,108.67 -115.98,612.35 -23.89,902.58 267.92,327.89 971.3,904.87 1465.75,970.6l1250.61 13.88 529.31 16.26"/>
  <path class="fil0 str0" d="M12599.19 18984.66l118.16 180.43c180.45,213.89 383.9,445.59 616.3,721.78 44.36,52.72 214.71,256.41 331.61,400.24 88.54,108.67 115.98,612.35 23.89,902.58 -267.92,327.89 -971.3,904.87 -1465.75,970.6l-1250.61 13.88 -608.31 -6.23"/>
  <path class="fil0 str0" d="M9167.28 13339.05c318.97,89.8 418.07,129.36 636.56,184.44 230.75,58.16 378.53,57.61 618.93,85.89 219.91,-22.79 449.4,-30.13 699.53,-78.22l583.48 -195.05"/>
  <polyline class="fil0 str0" points="10826.73,12805.18 11096.77,12513.81 11196.31,12505.06 11289.51,12586.77 11565.89,12204.93 "/>
  <polyline class="fil0 str0" points="11550.31,12226.45 11698.78,12069.02 12080.56,11524.99 "/>
  <line class="fil0 str0" x1="12039.29" y1="11556.57" x2="12333.8" y2= "11413.93" />
  <polyline class="fil0 str0" points="12245.4,11442.73 12657.51,11363.61 12998.28,11335.89 13459.72,11355.46 13758.11,11409.26 14120.08,11531.55 14446.19,11702.76 14759.24,11942.44 14954.91,12200.07 15140.79,12498.45 15308.73,12917.49 15360.91,13316.97 15365.8,13771.89 15318.51,14155.06 15225.57,14548.01 15101.65,14896.94 14901.1,15317.62 14633.69,15769.27 14416.84,16100.27 14167.37,16455.72 13816.81,16843.78 13433.63,17215.54 13117.31,17500.88 12877.63,17717.74 12623.27,17923.19 12080.3,18265.6 "/>
  <polyline class="fil0 str0" points="9086.67,17983.35 8599.7,17668.82 8330.66,17378.59 "/>
  <polyline class="fil0 str0" points="8349.37,17397.97 8065.1,16976.07 7818.68,16507.89 7684.98,16163.85 7548.01,15673.07 7466.49,15015.97 7424.09,14477.89 7453.44,13863.19 7507.25,13360.99 7671.93,12769.11 7885.53,12286.48 8203.48,11820.15 8679.59,11446.76 9338.32,11210.34 9953.03,11150.01 10595.45,11213.6 11089.5,11391.32 11697.68,11710.9 12044.98,11965.27 12341.74,12294.63 12519.46,12562.04 12834.15,13395.23 13030.63,14102.88 "/>
  <polyline class="fil0 str0" points="12979.27,13917 13081.99,14288.75 13174.93,14707.8 13300.48,15257.28 13484.73,15873.62 13611.91,16346.47 13833.66,17018.24 14117.37,17606.86 14350.54,17937.86 "/>
  <path class="fil0 str0" d="M10867.4 12765.15c-97.66,75.04 -60.03,152.01 -3.48,209.74 33.25,33.93 75.23,66.23 115.88,63.58 47.02,-3.07 199.22,-118.08 236.34,-154.42 17.65,-17.28 106.8,-101.28 97.33,-130.17 -10.49,-32.01 -129.07,-157.84 -216.7,-240.07"/>
  <path class="fil0 str0" d="M14180.49 17707.61c-58.78,24.04 -66.52,78.97 -73.68,154.65 -7.34,77.58 160.06,101.35 243.94,52.15 42.18,-24.75 59.34,-84.38 59.92,-105.77 2.43,-89.9 -124.84,-113.49 -230.18,-101.03z"/>
  <line class="fil0 str0" x1="14105.96" y1="17857.9" x2="14989.35" y2= "18779.34" />
  <line class="fil0 str0" x1="14407.69" y1="17825.57" x2="14902.1" y2= "18779.87" />
  <path class="fil0 str0" d="M14932.13 18766.94c-303.86,270.68 444.89,-218.87 0,0z"/>
  <line class="fil0 str0" x1="15115.3" y1="18950.53" x2="16414.5" y2= "20684.99" />
  <path class="fil0 str0" d="M15080.21 18937.59c-303.86,270.68 444.89,-218.87 0,0z"/>
 </g>
</svg>
